<svg width="48" height="48" viewBox="0 0 48 48" fill="none" xmlns="http://www.w3.org/2000/svg">
<path fill-rule="evenodd" clip-rule="evenodd" d="M16 19H32V31C32 33.2091 30.2091 35 28 35H20C17.7909 35 16 33.2091 16 31V19ZM21.5 22C21.7761 22 22 22.2239 22 22.5V30.5C22 30.7761 21.7761 31 21.5 31C21.2239 31 21 30.7761 21 30.5V22.5C21 22.2239 21.2239 22 21.5 22ZM27 22.5C27 22.2239 26.7761 22 26.5 22C26.2239 22 26 22.2239 26 22.5V30.5C26 30.7761 26.2239 31 26.5 31C26.7761 31 27 30.7761 27 30.5V22.5Z" fill="#FF7733"/>
<path fill-rule="evenodd" clip-rule="evenodd" d="M24 9C22.3431 9 21 10.3431 21 12H16C15.4477 12 15 12.4477 15 13C15 13.5523 15.4477 14 16 14H21H22H26H27H32C32.5523 14 33 13.5523 33 13C33 12.4477 32.5523 12 32 12H27C27 10.3431 25.6569 9 24 9ZM25 12C25 11.4477 24.5523 11 24 11C23.4477 11 23 11.4477 23 12H25Z" fill="#FF7733"/>
</svg>
