<svg width="48" height="48" viewBox="0 0 48 48" fill="none" xmlns="http://www.w3.org/2000/svg">
<path fill-rule="evenodd" clip-rule="evenodd" d="M16 19H32V31C32 33.2091 30.2091 35 28 35H20C17.7909 35 16 33.2091 16 31V19ZM21.5 22C21.7761 22 22 22.2239 22 22.5V30.5C22 30.7761 21.7761 31 21.5 31C21.2239 31 21 30.7761 21 30.5V22.5C21 22.2239 21.2239 22 21.5 22ZM27 22.5C27 22.2239 26.7761 22 26.5 22C26.2239 22 26 22.2239 26 22.5V30.5C26 30.7761 26.2239 31 26.5 31C26.7761 31 27 30.7761 27 30.5V22.5Z" fill="#FF7733"/>
<path fill-rule="evenodd" clip-rule="evenodd" d="M24 13C22.3431 13 21 14.3431 21 16H16C15.4477 16 15 16.4477 15 17C15 17.5523 15.4477 18 16 18H21H22H26H27H32C32.5523 18 33 17.5523 33 17C33 16.4477 32.5523 16 32 16H27C27 14.3431 25.6569 13 24 13ZM25 16C25 15.4477 24.5523 15 24 15C23.4477 15 23 15.4477 23 16H25Z" fill="#FF7733"/>
</svg>
